<?xml version="1.0" encoding="UTF-8" standalone="no"?>
<!-- Created with Inkscape (http://www.inkscape.org/) -->

<svg
   width="38.983501mm"
   height="57.330448mm"
   viewBox="0 0 38.983501 57.330448"
   version="1.1"
   id="svg2844"
   xml:space="preserve"
   inkscape:version="1.2.2 (732a01da63, 2022-12-09)"
   sodipodi:docname="bin1.svg"
   xmlns:inkscape="http://www.inkscape.org/namespaces/inkscape"
   xmlns:sodipodi="http://sodipodi.sourceforge.net/DTD/sodipodi-0.dtd"
   xmlns="http://www.w3.org/2000/svg"
   xmlns:svg="http://www.w3.org/2000/svg"><sodipodi:namedview
     id="namedview2846"
     pagecolor="#ffffff"
     bordercolor="#000000"
     borderopacity="0.25"
     inkscape:showpageshadow="2"
     inkscape:pageopacity="0.0"
     inkscape:pagecheckerboard="0"
     inkscape:deskcolor="#d1d1d1"
     inkscape:document-units="mm"
     showgrid="false"
     inkscape:zoom="0.914906"
     inkscape:cx="275.98464"
     inkscape:cy="504.4234"
     inkscape:window-width="1350"
     inkscape:window-height="1230"
     inkscape:window-x="338"
     inkscape:window-y="338"
     inkscape:window-maximized="0"
     inkscape:current-layer="layer1" /><defs
     id="defs2841" /><g
     inkscape:label="Layer 1"
     inkscape:groupmode="layer"
     id="layer1"
     transform="translate(-19.384843,-14.899597)"><path
       style="fill:#000000;stroke-width:0.264583"
       d="m 34.544123,71.998829 c -2.12573,-0.24697 -3.30464,-0.565271 -6.6469,-1.794631 -2.42833,-0.893199 -3.24664,-1.50131 -4.00196,-2.973983 -0.61732,-1.203622 -0.61875,-1.219769 -1.70905,-19.35497 l -0.90327,-15.024226 -0.94905,-0.895066 -0.94905,-0.895066 0.1527,-2.69352 c 0.0888,-1.565534 0.31615,-3.009604 0.543,-3.448298 0.21467,-0.415128 0.39031,-1.159643 0.39031,-1.654477 0,-1.669847 0.4918,-2.538505 1.81549,-3.206653 2.00213,-1.010605 6.16172,-2.228718 8.73943,-2.559296 1.8976,-0.243358 2.54993,-0.441403 3.08389,-0.936256 1.06728,-0.989128 1.96978,-1.350234 3.8868,-1.55518 2.77763,-0.296953 4.05405,-0.0049 5.23224,1.197053 0.63998,0.652916 1.31966,1.06793 1.88731,1.152402 7.04733,1.048711 7.69875,1.210771 9.18,2.283782 1.54876,1.121914 2.41019,2.544537 2.57792,4.257363 0.19788,2.020763 0.64556,3.697949 1.20155,4.501492 0.47679,0.689087 0.47641,0.690274 -0.80247,2.513542 l -1.27948,1.82413 -1.3755,17.065626 c -1.30421,16.181205 -1.4054,17.097764 -1.95248,17.685772 -0.77593,0.833964 -4.55329,3.322778 -5.86534,3.864528 -1.9735,0.814866 -8.04698,1.134957 -12.25609,0.645932 z m 3.94076,-13.001961 c 0.0264,-13.822797 0.19728,-25.377107 0.37798,-25.557804 0.0709,-0.07086 0.21812,-0.03959 0.32726,0.06947 0.10915,0.109064 0.23209,8.537861 0.27321,18.730659 l 0.0748,18.532362 1.19508,-0.134702 c 0.65729,-0.07409 1.2533,-0.192932 1.32447,-0.264099 0.1743,-0.1743 0.88395,-35.461518 0.7186,-35.732595 -0.20869,-0.342146 0.1756,-1.542858 0.44125,-1.378677 0.49397,0.305289 0.5369,2.785001 0.34068,19.677034 l -0.20086,17.29113 1.16972,-0.160496 c 0.64334,-0.08828 1.21294,-0.203724 1.26577,-0.256554 0.0848,-0.0848 1.02126,-26.223117 1.20035,-33.503752 0.0415,-1.688782 0.17207,-2.751198 0.33291,-2.709458 0.28963,0.07517 0.24015,18.235791 -0.08,29.366508 -0.10151,3.529031 -0.10981,6.416297 -0.0184,6.416146 0.0914,-1.53e-4 0.59738,-0.18047 1.12448,-0.400704 0.82224,-0.343553 0.95835,-0.522359 0.95835,-1.258921 0,-0.763114 0.56453,-11.512964 1.32315,-25.195862 0.14522,-2.619375 0.26411,-5.735029 0.2642,-6.923673 1.6e-4,-2.2207 0.14477,-2.998203 0.55763,-2.998203 0.12995,0 0.23628,1.446414 0.23628,3.214254 0,3.037015 -0.87596,25.091508 -1.1833,29.792519 -0.0785,1.200546 -0.0403,2.182812 0.0848,2.182812 0.12513,0 0.54254,-0.29197 0.92759,-0.648824 0.66689,-0.618051 0.70009,-0.77397 0.70009,-3.287176 0,-2.260386 0.46627,-8.759976 1.88277,-26.245218 0.2908,-3.589594 0.2907,-3.590962 -0.38208,-4.91861 -0.91721,-1.810047 -2.40299,-3.097525 -3.35489,-2.907144 -3.13699,0.627397 -8.82355,1.008431 -13.80391,0.924944 -5.43712,-0.09115 -5.48636,-0.08694 -5.74943,0.490654 -0.14594,0.320423 -0.59793,0.746864 -1.00442,0.947647 -1.06029,0.52372 -4.92355,1.076185 -6.04904,0.865042 l -0.95599,-0.179345 0.1649,1.934743 c 0.20848,2.446128 1.96045,28.969852 2.03817,30.856654 0.05,1.213141 0.16191,1.479312 0.81885,1.947092 0.41852,0.298019 0.82375,0.479063 0.90049,0.402318 0.10885,-0.10885 -1.60387,-31.244158 -1.83507,-33.359509 -0.0807,-0.738344 0.51755,-0.816706 0.69954,-0.09163 0.16334,0.650811 1.16407,14.16699 1.88528,25.463151 0.55168,8.640991 0.57312,8.797849 1.23107,9.006674 0.29419,0.09337 0.59006,0.114604 0.65748,0.04718 0.0674,-0.06742 -0.12732,-8.127683 -0.43276,-17.911687 -0.30544,-9.784004 -0.49829,-17.846158 -0.42855,-17.915898 0.62044,-0.620433 0.87517,3.099712 1.7144,25.03686 l 0.43965,11.492299 1.32292,0.342702 c 0.7276,0.188486 1.43169,0.345001 1.56464,0.347808 0.14522,0.0031 0.17438,-7.336052 0.073,-18.383439 -0.0948,-10.330752 -0.0682,-18.388542 0.0607,-18.388542 0.12616,0 0.29641,0.17468 0.37834,0.388178 0.0819,0.213497 0.27209,5.541545 0.42259,11.840105 0.15051,6.29856 0.34778,14.458254 0.43839,18.132655 l 0.16475,6.68073 h 1.68992 1.68992 z M 25.943733,32.044425 c 0.40966,-0.162618 1.22108,-0.311446 1.80317,-0.330729 0.8747,-0.02898 1.07266,-0.135732 1.1409,-0.6153 0.0685,-0.481241 -0.0825,-0.611207 -0.88482,-0.761726 -0.56011,-0.105078 -1.37514,-0.04692 -1.93587,0.138139 -0.87109,0.287486 -1.19292,0.23771 -3.20071,-0.495045 -1.22774,-0.448067 -2.24237,-0.814668 -2.25474,-0.814668 -0.0124,0 0.0228,0.474996 0.0782,1.055547 0.10876,1.140458 0.0663,1.115417 3.08833,1.819667 1.4397,0.335505 1.33129,0.335299 2.16558,0.0041 z m 30.2046,-1.409976 c 0.9543,-1.633174 0.9191,-1.804949 -0.44414,-2.167453 -0.83054,-0.220852 -1.70813,0.571091 -1.10209,0.994527 0.30172,0.210806 0.20357,0.244391 -0.40933,0.140075 -0.44342,-0.07547 -0.97815,-0.03095 -1.18829,0.09892 -0.30609,0.189172 -0.1852,0.416476 0.60777,1.142812 0.54442,0.49867 0.98985,1.049365 0.98985,1.223766 0,0.673212 0.68845,0.03533 1.54623,-1.432651 z m -7.36706,-1.015026 c 4.1947,-0.828061 7.5273,-2.557865 6.6391,-3.446066 -0.20908,-0.209071 -0.2891,-0.196614 -0.2891,0.045 0,0.479562 -2.93097,1.734561 -5.55625,2.379109 -3.54395,0.870095 -6.59719,1.155589 -12.43542,1.162776 -5.85702,0.0072 -7.91989,-0.229399 -11.3243,-1.298887 -2.43056,-0.763555 -3.72743,-1.516595 -4.18196,-2.428287 -0.25449,-0.510453 -0.32588,-0.536275 -0.46688,-0.168857 -0.31585,0.823095 -0.16445,1.43791 0.45386,1.843039 1.14616,0.750991 4.85976,1.957609 6.8246,2.217435 2.99274,0.395755 17.9203,0.171683 20.33635,-0.305262 z m -26.45833,-0.586619 c 0,-0.218281 -0.1786,-0.396875 -0.39688,-0.396875 -0.41316,0 -0.52492,0.312923 -0.22048,0.617361 0.30443,0.304439 0.61736,0.192681 0.61736,-0.220486 z m 22.77782,-0.258742 c 2.24256,-0.215069 4.73223,-0.585535 5.53259,-0.823258 1.80906,-0.537322 3.70049,-1.482462 4.26369,-2.130548 0.37797,-0.434936 0.89419,-2.475994 0.62622,-2.475994 -0.0572,0 -0.53485,0.292445 -1.06155,0.649878 -3.29472,2.235857 -9.95179,3.242379 -19.65318,2.971482 -7.21717,-0.201529 -10.13661,-0.880488 -12.24177,-2.847 l -0.80158,-0.748789 0.16634,1.243985 c 0.0915,0.684193 0.20588,1.373619 0.2542,1.532058 0.22471,0.736681 5.47976,2.522356 8.3393,2.833705 2.42717,0.264273 10.92677,0.144427 14.57574,-0.205519 z m -2.79218,-2.780453 c 6.84744,-0.648929 11.42653,-1.824662 12.79987,-3.286515 l 0.59351,-0.631759 -1.19863,-0.82468 c -1.60033,-1.101052 -3.35902,-1.831804 -5.45107,-2.264964 -2.1248,-0.439941 -6.31201,-0.776078 -5.21501,-0.418647 1.86746,0.60847 1.95924,1.425083 0.24767,2.203682 -1.08336,0.492821 -1.85154,0.585823 -5.56708,0.673996 -4.95528,0.117594 -6.0403,-0.01302 -6.27595,-0.755485 -0.23711,-0.74709 0.0562,-1.458861 0.73635,-1.78715 0.5625,-0.271484 0.55315,-0.285091 -0.20426,-0.297177 -1.62238,-0.02589 -4.57499,0.544124 -7.10636,1.371909 -2.01609,0.659284 -2.72893,1.022192 -3.13899,1.598067 l -0.53054,0.745077 0.59695,0.635425 c 1.06656,1.135309 5.82842,2.863251 9.03934,3.28012 2.75317,0.35744 4.85188,0.309878 10.6742,-0.241899 z m 0.51957,-5.574502 c 1.62428,-0.458925 1.63025,-0.704772 0.0139,-0.570728 -1.37145,0.113732 -1.50393,0.07098 -2.1849,-0.705064 -0.65288,-0.744031 -0.87507,-0.826136 -2.23568,-0.826136 -1.27175,0 -1.53697,0.08263 -1.67652,0.522292 -0.0912,0.287261 -0.54051,0.78913 -0.99852,1.115264 l -0.83275,0.592972 0.64996,0.19978 c 0.88222,0.271169 5.95397,0.04191 7.26455,-0.32838 z m -7.95723,-0.60402 c 0.50802,-0.216799 0.87978,-0.644585 1.08178,-1.244837 0.30211,-0.897714 0.34626,-0.920245 2.40098,-1.225384 3.11993,-0.463327 3.1759,-0.45621 3.55194,0.45163 0.18276,0.441228 0.26761,0.86692 0.18855,0.945981 -0.0791,0.07906 -0.22218,-0.103351 -0.31803,-0.405359 -0.0958,-0.302008 -0.29334,-0.549106 -0.43886,-0.549106 -0.32493,0 -0.008,1.117094 0.38942,1.371605 0.49783,0.319002 0.70457,-0.05049 0.70457,-1.259209 0,-1.087082 -0.0724,-1.213792 -0.92532,-1.620544 -0.86721,-0.413546 -1.082,-0.411742 -3.42064,0.02873 -2.4911,0.469189 -2.49599,0.471662 -2.89317,1.464327 -0.26574,0.664152 -0.66741,1.105994 -1.20957,1.330567 -0.81049,0.335715 -0.96821,0.556504 -0.63533,0.889385 0.24798,0.247974 0.6306,0.203328 1.52368,-0.177786 z m 9.0562,-0.739621 c -0.35011,-0.203505 -0.57124,-0.201225 -0.78052,0.008 -0.21294,0.212945 -0.0807,0.289822 0.48852,0.283955 0.68425,-0.0071 0.72027,-0.04307 0.292,-0.292001 z"
       id="path4066" /></g></svg>
